<svg xmlns="http://www.w3.org/2000/svg" xmlns:xlink="http://www.w3.org/1999/xlink" version="1.1" x="0px" y="0px" viewBox="0 0 64 80" style="enable-background:new 0 0 64 64;" xml:space="preserve"><g>
<path style="fill:#ff9902" d="M34.144,36.542l1.963-3.306l-5.343-5.343l-3.306,1.963c-0.868-0.458-1.783-0.836-2.73-1.128L23.777,25h-7.555l-0.95,3.729   c-0.947,0.292-1.862,0.67-2.73,1.128l-3.306-1.963l-5.343,5.343l1.963,3.306c-0.458,0.868-0.836,1.783-1.128,2.73L1,40.223v7.555   l3.729,0.95c0.292,0.947,0.67,1.862,1.128,2.73l-1.963,3.306l5.343,5.343l3.306-1.963c0.868,0.458,1.783,0.836,2.73,1.128   L16.223,63h7.555l0.95-3.729c0.947-0.292,1.862-0.67,2.73-1.128l3.306,1.963l5.343-5.343l-1.963-3.306   c0.458-0.868,0.836-1.783,1.128-2.73L39,47.777v-7.555l-3.729-0.95C34.979,38.325,34.602,37.41,34.144,36.542z M37,46.223   l-3.344,0.853l-0.152,0.564c-0.316,1.177-0.78,2.3-1.379,3.337l-0.292,0.507l1.76,2.966l-3.144,3.144l-2.966-1.76l-0.507,0.292   c-1.037,0.599-2.16,1.062-3.337,1.379l-0.564,0.152L22.223,61h-4.445l-0.853-3.344l-0.564-0.152c-1.177-0.316-2.3-0.78-3.337-1.379   l-0.507-0.292l-2.966,1.76l-3.144-3.144l1.76-2.966l-0.292-0.507c-0.599-1.037-1.062-2.16-1.379-3.337l-0.152-0.564L3,46.223   v-4.445l3.344-0.853l0.152-0.564c0.316-1.177,0.78-2.3,1.379-3.337l0.292-0.507l-1.76-2.966l3.144-3.144l2.966,1.76l0.507-0.292   c1.037-0.599,2.16-1.062,3.337-1.379l0.564-0.152L17.777,27h4.445l0.853,3.344l0.564,0.152c1.177,0.316,2.3,0.78,3.337,1.379   l0.507,0.292l2.966-1.76l3.144,3.144l-1.76,2.966l0.292,0.507c0.599,1.037,1.062,2.16,1.379,3.337l0.152,0.564L37,41.777V46.223z"/>
<path style="fill:rgba(83, 82, 237, 1)"  d="M20,32c-6.617,0-12,5.383-12,12s5.383,12,12,12s12-5.383,12-12S26.617,32,20,32z M20,54c-5.514,0-10-4.486-10-10   s4.486-10,10-10s10,4.486,10,10S25.514,54,20,54z"/>
<path style="fill:#02b7ff" d="M20,38c-3.309,0-6,2.691-6,6s2.691,6,6,6s6-2.691,6-6S23.309,38,20,38z M20,48c-2.206,0-4-1.794-4-4s1.794-4,4-4   s4,1.794,4,4S22.206,48,20,48z"/>
<path style="fill:#ff9902" d="M60,9H36c-1.654,0-3,1.346-3,3v14c0,1.654,1.346,3,3,3h2v4.618L47.236,29H60c1.654,0,3-1.346,3-3V12   C63,10.346,61.654,9,60,9z M61,26c0,0.552-0.448,1-1,1H46.764L40,30.382V27h-4c-0.552,0-1-0.448-1-1V12c0-0.552,0.448-1,1-1h24   c0.552,0,1,0.448,1,1V26z"/>
<path style="fill:#ff9902" d="M4,19h9.723L20,22.767V19h8c1.654,0,3-1.346,3-3V4c0-1.654-1.346-3-3-3H4C2.346,1,1,2.346,1,4v12C1,17.654,2.346,19,4,19z    M3,4c0-0.552,0.448-1,1-1h24c0.552,0,1,0.448,1,1v12c0,0.552-0.448,1-1,1H18v2.233L14.277,17H4c-0.552,0-1-0.448-1-1V4z"/>
<polygon style="fill:rgba(83, 82, 237, 1)" points="57,23 55,23 55,15 53,15 53,23 51,23 51,13 49,13 49,23 47,23 47,17 45,17 45,23 43,23 43,19 41,19 41,23 39,23    39,25 59,25 59,13 57,13  "/>
<path style="fill:rgba(83, 82, 237, 1)" d="M8,13c1.654,0,3-1.346,3-3S9.654,7,8,7s-3,1.346-3,3S6.346,13,8,13z M8,9c0.552,0,1,0.448,1,1s-0.448,1-1,1s-1-0.448-1-1   S7.448,9,8,9z"/>
<path style="fill:rgba(83, 82, 237, 1)" d="M16,13c1.654,0,3-1.346,3-3s-1.346-3-3-3s-3,1.346-3,3S14.346,13,16,13z M16,9c0.552,0,1,0.448,1,1s-0.448,1-1,1   s-1-0.448-1-1S15.448,9,16,9z"/>
<path style="fill:rgba(83, 82, 237, 1)" d="M24,13c1.654,0,3-1.346,3-3s-1.346-3-3-3s-3,1.346-3,3S22.346,13,24,13z M24,9c0.552,0,1,0.448,1,1s-0.448,1-1,1   s-1-0.448-1-1S23.448,9,24,9z"/>
<path style="fill:#ff9902" d="M52,41c-1.956,0-3.871,0.524-5.563,1.52l-6.03-0.716l2.028,4.78C41.494,48.24,41,50.101,41,52c0,6.065,4.935,11,11,11   s11-4.935,11-11S58.065,41,52,41z M46.355,59h11.289c-1.545,1.248-3.508,2-5.645,2S47.901,60.248,46.355,59z M50.67,52.479   C50.238,52.09,50,51.564,50,51v-1.83c0-1.141,0.849-2.112,1.891-2.167c0.548-0.032,1.084,0.164,1.486,0.547   C53.778,47.932,54,48.446,54,49v2c0,0.564-0.238,1.09-0.67,1.479L53,52.777v1.841L55.764,56c0.445,0.222,0.791,0.575,1.003,1   h-9.533c0.212-0.425,0.559-0.778,1.003-1L51,54.618v-1.841L50.67,52.479z M58.977,57.675c-0.112-1.482-0.973-2.791-2.319-3.464   l-1.513-0.756C55.694,52.755,56,51.89,56,51v-2c0-1.092-0.454-2.149-1.246-2.901c-0.804-0.762-1.844-1.134-2.968-1.094   C49.663,45.116,48,46.946,48,49.17V51c0,0.89,0.306,1.755,0.854,2.455l-1.513,0.756c-1.346,0.673-2.207,1.982-2.319,3.464   C43.76,56.125,43,54.15,43,52c0-1.696,0.483-3.357,1.398-4.803l0.28-0.443l-1.085-2.558l3.303,0.393l0.301-0.19   C48.643,43.483,50.304,43,52,43c4.963,0,9,4.037,9,9C61,54.15,60.24,56.125,58.977,57.675z"/>
</g></svg>